<svg width="60" height="60" viewBox="0 0 60 60" fill="none" xmlns="http://www.w3.org/2000/svg">
<rect x="0.5" y="0.5" width="59" height="59" rx="29.5" stroke="black"/>
<path d="M38.4167 43.8C36.7833 45.3833 35 45.1333 33.2833 44.3833C31.4667 43.6167 29.8 43.5833 27.8833 44.3833C25.4833 45.4167 24.2167 45.1167 22.7833 43.8C14.65 35.4167 15.85 22.65 25.0833 22.1833C27.3333 22.3 28.9 23.4167 30.2167 23.5167C32.1833 23.1167 34.0667 21.9667 36.1667 22.1167C38.6833 22.3167 40.5833 23.3167 41.8333 25.1167C36.6333 28.2333 37.8667 35.0833 42.6333 37C41.6833 39.5 40.45 41.9833 38.4 43.8167L38.4167 43.8ZM30.05 22.0833C29.8 18.3667 32.8167 15.3 36.2833 15C36.7667 19.3 32.3833 22.5 30.05 22.0833Z" fill="black"/>
</svg>
