<svg width="60" height="60" viewBox="0 0 60 60" fill="none" xmlns="http://www.w3.org/2000/svg">
<rect x="0.5" y="0.5" width="59" height="59" rx="29.5" stroke="black"/>
<path d="M23 13.3333H37C42.3333 13.3333 46.6666 17.6666 46.6666 23V37C46.6666 39.5637 45.6482 42.0225 43.8353 43.8353C42.0225 45.6482 39.5637 46.6666 37 46.6666H23C17.6666 46.6666 13.3333 42.3333 13.3333 37V23C13.3333 20.4362 14.3518 17.9775 16.1646 16.1646C17.9775 14.3518 20.4362 13.3333 23 13.3333ZM22.6666 16.6666C21.0753 16.6666 19.5492 17.2988 18.424 18.424C17.2988 19.5492 16.6666 21.0753 16.6666 22.6666V37.3333C16.6666 40.65 19.35 43.3333 22.6666 43.3333H37.3333C38.9246 43.3333 40.4507 42.7012 41.576 41.576C42.7012 40.4507 43.3333 38.9246 43.3333 37.3333V22.6666C43.3333 19.35 40.65 16.6666 37.3333 16.6666H22.6666ZM38.75 19.1666C39.3025 19.1666 39.8324 19.3861 40.2231 19.7768C40.6138 20.1675 40.8333 20.6974 40.8333 21.25C40.8333 21.8025 40.6138 22.3324 40.2231 22.7231C39.8324 23.1138 39.3025 23.3333 38.75 23.3333C38.1974 23.3333 37.6675 23.1138 37.2768 22.7231C36.8861 22.3324 36.6666 21.8025 36.6666 21.25C36.6666 20.6974 36.8861 20.1675 37.2768 19.7768C37.6675 19.3861 38.1974 19.1666 38.75 19.1666ZM30 21.6666C32.2101 21.6666 34.3297 22.5446 35.8925 24.1074C37.4553 25.6702 38.3333 27.7898 38.3333 30C38.3333 32.2101 37.4553 34.3297 35.8925 35.8925C34.3297 37.4553 32.2101 38.3333 30 38.3333C27.7898 38.3333 25.6702 37.4553 24.1074 35.8925C22.5446 34.3297 21.6666 32.2101 21.6666 30C21.6666 27.7898 22.5446 25.6702 24.1074 24.1074C25.6702 22.5446 27.7898 21.6666 30 21.6666ZM30 25C28.6739 25 27.4021 25.5268 26.4644 26.4644C25.5268 27.4021 25 28.6739 25 30C25 31.3261 25.5268 32.5978 26.4644 33.5355C27.4021 34.4732 28.6739 35 30 35C31.3261 35 32.5978 34.4732 33.5355 33.5355C34.4732 32.5978 35 31.3261 35 30C35 28.6739 34.4732 27.4021 33.5355 26.4644C32.5978 25.5268 31.3261 25 30 25Z" fill="black"/>
</svg>
