<svg width="32" height="32" viewBox="0 0 32 32" fill="none" xmlns="http://www.w3.org/2000/svg">
<path d="M16 31C24.2843 31 31 24.2843 31 16C31 7.71573 24.2843 1 16 1C7.71573 1 1 7.71573 1 16C1 24.2843 7.71573 31 16 31Z" stroke="#FF9FF2" stroke-width="1.32" stroke-miterlimit="10" stroke-linecap="round"/>
<path d="M19.2398 7.93748C19.0373 6.81248 17.9348 4.47998 17.4248 4.10498C17.4248 4.10498 16.2773 5.72498 15.9998 5.97248C15.7223 5.72498 14.5748 4.10498 14.5748 4.10498C14.0648 4.47998 12.9548 6.81248 12.7598 7.93748C12.6923 8.31248 12.5723 10.0225 13.4573 11.635C13.5698 11.845 14.0423 12.4975 14.9798 13.8025C15.4073 14.4025 15.7598 14.89 15.9998 15.2275C16.2398 14.8975 16.5923 14.4025 17.0198 13.8025C17.9573 12.4975 18.4223 11.8375 18.5423 11.635C19.4273 10.015 19.3073 8.31248 19.2398 7.93748Z" stroke="#FF9FF2" stroke-width="1.32" stroke-linecap="round" stroke-linejoin="round"/>
<path d="M9.18241 10.5325C8.04991 10.375 5.49241 10.705 4.97491 11.0725C4.97491 11.0725 6.16741 12.67 6.31741 13.0075C5.99491 13.195 4.09741 13.7875 4.09741 13.7875C4.29991 14.3875 6.17491 16.165 7.18741 16.6975C7.52491 16.8775 9.10741 17.5225 10.9224 17.1775C11.1549 17.1325 11.9274 16.8925 13.4574 16.405C14.1549 16.18 14.7324 16 15.1299 15.8725C14.8899 15.5425 14.5299 15.055 14.0949 14.4625C13.1424 13.1725 12.6624 12.52 12.4974 12.3475C11.2299 11.005 9.57241 10.5925 9.19741 10.54L9.18241 10.5325Z" stroke="#FF9FF2" stroke-width="1.32" stroke-linecap="round" stroke-linejoin="round"/>
<path d="M8.5448 20.905C8.0423 21.9325 7.5698 24.4675 7.7573 25.075C7.7573 25.075 9.6398 24.4375 10.0073 24.4C10.0823 24.76 10.0598 26.7475 10.0598 26.7475C10.6973 26.7475 12.9623 25.5025 13.7873 24.715C14.0648 24.4525 15.1673 23.14 15.3998 21.31C15.4298 21.07 15.4373 20.2675 15.4448 18.6625C15.4448 17.9275 15.4448 17.32 15.4523 16.9075C15.0623 17.035 14.4848 17.2225 13.7873 17.455C12.2648 17.9575 11.4998 18.2125 11.2823 18.3175C9.6098 19.105 8.7098 20.56 8.5373 20.8975L8.5448 20.905Z" stroke="#FF9FF2" stroke-width="1.32" stroke-linecap="round" stroke-linejoin="round"/>
<path d="M18.2123 24.715C19.0373 25.51 21.3023 26.7475 21.9398 26.7475C21.9398 26.7475 21.9173 24.76 21.9923 24.3925C22.3598 24.43 24.2423 25.0675 24.2423 25.0675C24.4373 24.46 23.9573 21.925 23.4548 20.8975C23.2898 20.5525 22.3823 19.105 20.7098 18.3175C20.4923 18.2125 19.7273 17.9575 18.2048 17.455C17.5073 17.2225 16.9298 17.035 16.5398 16.9075C16.5398 17.32 16.5398 17.9275 16.5473 18.6625C16.5548 20.2675 16.5623 21.0775 16.5923 21.31C16.8248 23.14 17.9273 24.4525 18.2048 24.715H18.2123Z" stroke="#FF9FF2" stroke-width="1.32" stroke-linecap="round" stroke-linejoin="round"/>
<path d="M24.8198 16.7049C25.8323 16.1649 27.7073 14.3949 27.9098 13.7949C27.9098 13.7949 26.0123 13.2024 25.6898 13.0149C25.8398 12.6774 27.0323 11.0799 27.0323 11.0799C26.5148 10.7124 23.9573 10.3824 22.8248 10.5399C22.4498 10.5924 20.7848 11.0049 19.5248 12.3474C19.3598 12.5199 18.8798 13.1724 17.9273 14.4624C17.4923 15.0549 17.1323 15.5424 16.8923 15.8724C17.2823 15.9999 17.8598 16.1799 18.5573 16.4049C20.0873 16.8924 20.8598 17.1324 21.0923 17.1774C22.9073 17.5224 24.4898 16.8774 24.8273 16.6974L24.8198 16.7049Z" stroke="#FF9FF2" stroke-width="1.32" stroke-linecap="round" stroke-linejoin="round"/>
</svg>
