<svg width="32" height="32" viewBox="0 0 32 32" fill="none" xmlns="http://www.w3.org/2000/svg">
<path d="M16 31C24.2843 31 31 24.2843 31 16C31 7.71573 24.2843 1 16 1C7.71573 1 1 7.71573 1 16C1 24.2843 7.71573 31 16 31Z" stroke="#94C1FF" stroke-width="1.32" stroke-miterlimit="10" stroke-linecap="round"/>
<path d="M15.9998 4.45752V16" stroke="#94C1FF" stroke-width="1.32" stroke-miterlimit="10" stroke-linecap="round"/>
<path d="M19.2698 6.09253L15.9998 9.22003" stroke="#94C1FF" stroke-width="1.32" stroke-miterlimit="10" stroke-linecap="round"/>
<path d="M12.7373 6.09253L15.9998 9.22003" stroke="#94C1FF" stroke-width="1.32" stroke-miterlimit="10" stroke-linecap="round"/>
<path d="M19.2698 9.21997L15.9998 12.355" stroke="#94C1FF" stroke-width="1.32" stroke-miterlimit="10" stroke-linecap="round"/>
<path d="M12.7373 9.21997L15.9998 12.355" stroke="#94C1FF" stroke-width="1.32" stroke-miterlimit="10" stroke-linecap="round"/>
<path d="M25.9975 10.225L16 16" stroke="#94C1FF" stroke-width="1.32" stroke-miterlimit="10" stroke-linecap="round"/>
<path d="M26.2151 13.87L21.8726 12.61" stroke="#94C1FF" stroke-width="1.32" stroke-miterlimit="10" stroke-linecap="round"/>
<path d="M22.9526 8.22253L21.8726 12.61" stroke="#94C1FF" stroke-width="1.32" stroke-miterlimit="10" stroke-linecap="round"/>
<path d="M23.5075 15.4375L19.165 14.1775" stroke="#94C1FF" stroke-width="1.32" stroke-miterlimit="10" stroke-linecap="round"/>
<path d="M20.245 9.78259L19.165 14.1776" stroke="#94C1FF" stroke-width="1.32" stroke-miterlimit="10" stroke-linecap="round"/>
<path d="M25.9975 21.775L16 16" stroke="#94C1FF" stroke-width="1.32" stroke-miterlimit="10" stroke-linecap="round"/>
<path d="M22.9526 23.785L21.8726 19.39" stroke="#94C1FF" stroke-width="1.32" stroke-miterlimit="10" stroke-linecap="round"/>
<path d="M26.2151 18.13L21.8726 19.39" stroke="#94C1FF" stroke-width="1.32" stroke-miterlimit="10" stroke-linecap="round"/>
<path d="M20.245 22.2175L19.165 17.8225" stroke="#94C1FF" stroke-width="1.32" stroke-miterlimit="10" stroke-linecap="round"/>
<path d="M23.5075 16.5625L19.165 17.8225" stroke="#94C1FF" stroke-width="1.32" stroke-miterlimit="10" stroke-linecap="round"/>
<path d="M15.9998 27.55V16" stroke="#94C1FF" stroke-width="1.32" stroke-miterlimit="10" stroke-linecap="round"/>
<path d="M12.7373 25.915L15.9998 22.78" stroke="#94C1FF" stroke-width="1.32" stroke-miterlimit="10" stroke-linecap="round"/>
<path d="M19.2698 25.915L15.9998 22.78" stroke="#94C1FF" stroke-width="1.32" stroke-miterlimit="10" stroke-linecap="round"/>
<path d="M12.7373 22.78L15.9998 19.6525" stroke="#94C1FF" stroke-width="1.32" stroke-miterlimit="10" stroke-linecap="round"/>
<path d="M19.2698 22.78L15.9998 19.6525" stroke="#94C1FF" stroke-width="1.32" stroke-miterlimit="10" stroke-linecap="round"/>
<path d="M6.00244 21.775L15.9999 16" stroke="#94C1FF" stroke-width="1.32" stroke-miterlimit="10" stroke-linecap="round"/>
<path d="M5.78491 18.13L10.1349 19.39" stroke="#94C1FF" stroke-width="1.32" stroke-miterlimit="10" stroke-linecap="round"/>
<path d="M9.05493 23.785L10.1349 19.39" stroke="#94C1FF" stroke-width="1.32" stroke-miterlimit="10" stroke-linecap="round"/>
<path d="M8.5 16.5625L12.8425 17.8225" stroke="#94C1FF" stroke-width="1.32" stroke-miterlimit="10" stroke-linecap="round"/>
<path d="M11.7625 22.2175L12.8425 17.8225" stroke="#94C1FF" stroke-width="1.32" stroke-miterlimit="10" stroke-linecap="round"/>
<path d="M6.00244 10.225L15.9999 16" stroke="#94C1FF" stroke-width="1.32" stroke-miterlimit="10" stroke-linecap="round"/>
<path d="M9.05493 8.22253L10.1349 12.61" stroke="#94C1FF" stroke-width="1.32" stroke-miterlimit="10" stroke-linecap="round"/>
<path d="M5.78491 13.87L10.1349 12.61" stroke="#94C1FF" stroke-width="1.32" stroke-miterlimit="10" stroke-linecap="round"/>
<path d="M11.7625 9.78259L12.8425 14.1776" stroke="#94C1FF" stroke-width="1.32" stroke-miterlimit="10" stroke-linecap="round"/>
<path d="M8.5 15.4375L12.8425 14.1775" stroke="#94C1FF" stroke-width="1.32" stroke-miterlimit="10" stroke-linecap="round"/>
</svg>
