<svg width="32" height="32" viewBox="0 0 32 32" fill="none" xmlns="http://www.w3.org/2000/svg">
<path d="M16 31C24.2843 31 31 24.2843 31 16C31 7.71573 24.2843 1 16 1C7.71573 1 1 7.71573 1 16C1 24.2843 7.71573 31 16 31Z" stroke="#B8741C" stroke-width="1.32" stroke-linecap="round" stroke-linejoin="round"/>
<path d="M26.2376 13.1425C18.7151 17.9875 20.8376 8.34247 20.8376 8.34247C16.8251 11.3425 15.9926 3.40747 15.9926 3.40747C15.9926 3.40747 15.1601 11.3425 11.1476 8.34247C11.1476 8.34247 13.2701 17.98 5.74756 13.1425C5.74756 13.1425 8.74756 20.0125 5.74756 19.2325C5.74756 19.2325 11.9726 23.71 8.23756 24.355C8.23756 24.355 12.2501 26.755 15.9851 23.4325C19.7201 26.755 23.7326 24.355 23.7326 24.355C19.9976 23.71 26.2226 19.2325 26.2226 19.2325C23.2226 20.02 26.2226 13.1425 26.2226 13.1425H26.2376Z" stroke="#B8741C" stroke-width="1.32" stroke-linecap="round" stroke-linejoin="round"/>
<path d="M16 28.645V23.455" stroke="#B8741C" stroke-width="1.32" stroke-linecap="round" stroke-linejoin="round"/>
</svg>
