<svg width="30" height="30" viewBox="0 0 30 30" fill="none" xmlns="http://www.w3.org/2000/svg">
<path d="M19.413 23.7118C19.5001 23.7989 19.5692 23.9023 19.6164 24.0161C19.6635 24.1299 19.6878 24.2519 19.6878 24.375C19.6878 24.4982 19.6635 24.6202 19.6164 24.734C19.5692 24.8478 19.5001 24.9512 19.413 25.0383C19.3259 25.1254 19.2225 25.1945 19.1087 25.2417C18.9949 25.2888 18.8729 25.3131 18.7498 25.3131C18.6266 25.3131 18.5046 25.2888 18.3908 25.2417C18.277 25.1945 18.1736 25.1254 18.0865 25.0383L8.71148 15.6633C8.62431 15.5762 8.55517 15.4729 8.50799 15.359C8.46081 15.2452 8.43652 15.1232 8.43652 15C8.43652 14.8768 8.46081 14.7548 8.50799 14.641C8.55517 14.5272 8.62431 14.4238 8.71148 14.3368L18.0865 4.96175C18.2624 4.78584 18.501 4.68701 18.7498 4.68701C18.9985 4.68701 19.2371 4.78584 19.413 4.96175C19.589 5.13766 19.6878 5.37625 19.6878 5.62503C19.6878 5.87381 19.589 6.1124 19.413 6.28831L10.7002 15L19.413 23.7118Z" fill="black"/>
</svg>
