<svg width="60" height="60" viewBox="0 0 60 60" fill="none" xmlns="http://www.w3.org/2000/svg">
<rect x="0.5" y="0.5" width="59" height="59" rx="29.5" stroke="black"/>
<path d="M45.5834 28.5H30.3V33.05H41.15C40.6 39.4 35.3167 42.1167 30.3167 42.1167C23.9334 42.1167 18.3334 37.0833 18.3334 30C18.3334 23.1666 23.6667 17.8833 30.3334 17.8833C35.4834 17.8833 38.5 21.1666 38.5 21.1666L41.6667 17.8666C41.6667 17.8666 37.6 13.3333 30.1667 13.3333C20.7 13.3333 13.3834 21.3333 13.3834 30C13.3834 38.4167 20.2667 46.6667 30.4167 46.6667C39.3334 46.6667 45.8334 40.55 45.8334 31.5166C45.8334 29.6 45.5834 28.5 45.5834 28.5Z" fill="black"/>
</svg>
