<svg width="32" height="32" viewBox="0 0 32 32" fill="none" xmlns="http://www.w3.org/2000/svg">
<path d="M16 31C24.2843 31 31 24.2843 31 16C31 7.71573 24.2843 1 16 1C7.71573 1 1 7.71573 1 16C1 24.2843 7.71573 31 16 31Z" stroke="#FFC755" stroke-width="1.32" stroke-miterlimit="10" stroke-linecap="round"/>
<path d="M16.0001 21.5651C19.0735 21.5651 21.5651 19.0735 21.5651 16.0001C21.5651 12.9266 19.0735 10.4351 16.0001 10.4351C12.9266 10.4351 10.4351 12.9266 10.4351 16.0001C10.4351 19.0735 12.9266 21.5651 16.0001 21.5651Z" stroke="#FFC755" stroke-width="1.32" stroke-miterlimit="10" stroke-linecap="round"/>
<path d="M16 8.43246V6.08496" stroke="#FFC755" stroke-width="1.32" stroke-miterlimit="10" stroke-linecap="round"/>
<path d="M22.5552 12.2125L24.5877 11.0425" stroke="#FFC755" stroke-width="1.32" stroke-miterlimit="10" stroke-linecap="round"/>
<path d="M22.5552 19.7875L24.5877 20.9575" stroke="#FFC755" stroke-width="1.32" stroke-miterlimit="10" stroke-linecap="round"/>
<path d="M16 23.5675V25.915" stroke="#FFC755" stroke-width="1.32" stroke-miterlimit="10" stroke-linecap="round"/>
<path d="M9.4451 19.7875L7.4126 20.9575" stroke="#FFC755" stroke-width="1.32" stroke-miterlimit="10" stroke-linecap="round"/>
<path d="M9.4451 12.2125L7.4126 11.0425" stroke="#FFC755" stroke-width="1.32" stroke-miterlimit="10" stroke-linecap="round"/>
<path d="M12.2201 9.44501L9.87256 5.38" stroke="#FFC755" stroke-width="1.32" stroke-miterlimit="10" stroke-linecap="round"/>
<path d="M19.7876 9.44501L22.1351 5.38" stroke="#FFC755" stroke-width="1.32" stroke-miterlimit="10" stroke-linecap="round"/>
<path d="M23.5752 16H28.2627" stroke="#FFC755" stroke-width="1.32" stroke-miterlimit="10" stroke-linecap="round"/>
<path d="M19.7876 22.5551L22.1351 26.6201" stroke="#FFC755" stroke-width="1.32" stroke-miterlimit="10" stroke-linecap="round"/>
<path d="M12.2201 22.5551L9.87256 26.6201" stroke="#FFC755" stroke-width="1.32" stroke-miterlimit="10" stroke-linecap="round"/>
<path d="M8.43262 16H3.74512" stroke="#FFC755" stroke-width="1.32" stroke-miterlimit="10" stroke-linecap="round"/>
</svg>
