<svg width="25" height="25" viewBox="0 0 25 25" fill="none" xmlns="http://www.w3.org/2000/svg">
<path d="M24.1788 5.97852L19.1242 3.22266C19.0096 3.15929 18.881 3.12571 18.7501 3.125H15.6251C15.4179 3.125 15.2192 3.20731 15.0727 3.35382C14.9262 3.50034 14.8439 3.69905 14.8439 3.90625C14.8439 4.52785 14.5969 5.12399 14.1574 5.56353C13.7179 6.00307 13.1217 6.25 12.5001 6.25C11.8785 6.25 11.2824 6.00307 10.8428 5.56353C10.4033 5.12399 10.1564 4.52785 10.1564 3.90625C10.1564 3.69905 10.0741 3.50034 9.92756 3.35382C9.78104 3.20731 9.58233 3.125 9.37513 3.125H6.25013C6.11891 3.12554 5.98994 3.15913 5.87513 3.22266L0.821418 5.97852C0.461165 6.1689 0.191111 6.49437 0.0704709 6.88357C-0.0501692 7.27277 -0.0115489 7.69392 0.177863 8.05469L2.0597 11.6494C2.19653 11.9079 2.40163 12.1238 2.65268 12.2738C2.90373 12.4238 3.1911 12.502 3.48353 12.5H5.46888V20.3125C5.46888 20.7269 5.6335 21.1243 5.92652 21.4174C6.21955 21.7104 6.61698 21.875 7.03138 21.875H17.9689C18.3833 21.875 18.7807 21.7104 19.0737 21.4174C19.3668 21.1243 19.5314 20.7269 19.5314 20.3125V12.5H21.5177C21.8101 12.502 22.0975 12.4238 22.3486 12.2738C22.5996 12.1238 22.8047 11.9079 22.9415 11.6494L24.8234 8.05469C25.0127 7.6938 25.0512 7.27256 24.9304 6.88334C24.8095 6.49413 24.5393 6.16873 24.1788 5.97852ZM3.48353 10.9375C3.46909 10.9382 3.45489 10.9337 3.44349 10.9248L1.57142 7.34961L5.46888 5.22266V10.9375H3.48353ZM17.9689 20.3125H7.03138V4.6875H8.672C8.85225 5.56949 9.3316 6.36215 10.029 6.93142C10.7263 7.50069 11.5989 7.81162 12.4992 7.81162C13.3994 7.81162 14.272 7.50069 14.9693 6.93142C15.6667 6.36215 16.1461 5.56949 16.3263 4.6875H17.9689V20.3125ZM21.5577 10.9238C21.5523 10.9287 21.546 10.9324 21.5391 10.9348C21.5322 10.9371 21.525 10.9381 21.5177 10.9375H19.5314V5.22266L23.4298 7.34961L21.5577 10.9238Z" fill="black"/>
</svg>
